<svg width="178" height="64" viewBox="0 0 178 64" fill="none" xmlns="http://www.w3.org/2000/svg">
<g clip-path="url(#clip0_144_890)">
<rect width="178" height="64" fill="white"/>
<path d="M5.32934 0.5H172.671C175.337 0.5 177.5 2.6636 177.5 5.33333V58.6667C177.5 61.3364 175.337 63.5 172.671 63.5H5.32934C2.66252 63.5 0.5 61.3364 0.5 58.6667V5.33333C0.5 2.6636 2.66252 0.5 5.32934 0.5Z" fill="#3C8ACA" stroke="#3C8ACA"/>
<path d="M172.67 0.533447H5.32912C2.68014 0.533447 0.532715 2.68248 0.532715 5.33345V58.6668C0.532715 61.3177 2.68014 63.4668 5.32912 63.4668H172.67C175.319 63.4668 177.467 61.3177 177.467 58.6668V5.33345C177.467 2.68248 175.319 0.533447 172.67 0.533447Z" stroke="#3C8ACA"/>
<g clip-path="url(#clip1_144_890)">
<path d="M52 18.5C49.3299 18.4999 46.7196 19.2916 44.4995 20.775C42.2793 22.2583 40.5489 24.3668 39.5271 26.8337C38.5052 29.3006 38.2379 32.0151 38.7588 34.6339C39.2798 37.2527 40.5656 39.6582 42.4537 41.5462C44.9856 44.0781 48.4195 45.5004 52 45.5004C55.5805 45.5004 59.0144 44.0781 61.5462 41.5462C64.0781 39.0144 65.5004 35.5805 65.5004 32C65.5004 28.4195 64.0781 24.9856 61.5462 22.4537C60.2955 21.1962 58.8077 20.1993 57.1691 19.5206C55.5305 18.8419 53.7736 18.4951 52 18.5ZM52 17C54.9667 17 57.8669 17.8797 60.3335 19.528C62.8002 21.1762 64.7229 23.5189 65.8582 26.2598C66.9935 29.0006 67.2905 32.0166 66.7117 34.9264C66.133 37.8361 64.7044 40.5089 62.6066 42.6066C60.5089 44.7044 57.8361 46.133 54.9264 46.7117C52.0166 47.2905 49.0006 46.9935 46.2598 45.8582C43.5189 44.7229 41.1762 42.8002 39.528 40.3335C37.8797 37.8669 37 34.9667 37 32C37 28.0217 38.5804 24.2064 41.3934 21.3934C44.2064 18.5804 48.0217 17 52 17Z" fill="white"/>
<path d="M48.255 37.0251C48.071 37.026 47.8938 36.9593 47.7558 36.8375L42.7558 32.4326C42.6776 32.364 42.6141 32.2796 42.5702 32.1853C42.5263 32.0909 42.5028 31.9885 42.5006 31.8844C42.4985 31.7804 42.518 31.677 42.558 31.5809C42.598 31.4849 42.6572 31.3983 42.7326 31.3264L47.7326 26.5539C47.8032 26.4829 47.8877 26.4268 47.9804 26.3888C48.073 26.3508 48.172 26.3318 48.2721 26.3328C48.3723 26.3339 48.4708 26.355 48.5626 26.3949C48.6545 26.4348 48.7377 26.4926 48.8068 26.565C48.8759 26.6375 48.93 26.7232 48.9655 26.8168C49.001 26.9105 49.018 27.0102 49.0143 27.1102C49.0106 27.2103 48.987 27.3088 48.9447 27.3995C48.9024 27.4903 48.842 27.5716 48.7677 27.6388L44.3549 31.8464L48.747 35.7101C48.8615 35.8111 48.9423 35.9445 48.9789 36.0928C49.0155 36.241 49.0052 36.3969 48.9508 36.5395C48.8965 36.6823 48.8009 36.805 48.675 36.8913C48.549 36.9776 48.3992 37.0235 48.2465 37.0226L48.255 37.0251Z" fill="white"/>
<path d="M55.7454 37.0251C55.5927 37.0259 55.444 36.98 55.3182 36.8938C55.1922 36.8074 55.0954 36.6849 55.041 36.5421C54.9867 36.3995 54.9764 36.2436 55.0129 36.0954C55.0495 35.9471 55.1304 35.8135 55.2449 35.7125L59.637 31.8489L55.2242 27.6414C55.1499 27.5742 55.0894 27.4928 55.0472 27.402C55.0049 27.3112 54.9813 27.2129 54.9775 27.1128C54.9739 27.0128 54.9909 26.9129 55.0264 26.8193C55.0619 26.7256 55.1159 26.6401 55.185 26.5676C55.2542 26.4952 55.3374 26.4372 55.4293 26.3974C55.521 26.3575 55.6197 26.3363 55.7198 26.3352C55.8199 26.3342 55.9188 26.3533 56.0115 26.3912C56.1042 26.4292 56.1887 26.4853 56.2593 26.5563L61.2593 31.3289C61.3347 31.4006 61.3939 31.4874 61.4339 31.5835C61.4739 31.6796 61.4934 31.7828 61.4913 31.8869C61.4892 31.9909 61.4655 32.0934 61.4217 32.1878C61.3778 32.2821 61.3143 32.3664 61.2362 32.4351L56.2362 36.8401C56.1 36.959 55.926 37.0246 55.7454 37.0251Z" fill="white"/>
<path d="M50.7497 39.6248C50.7078 39.6246 50.6659 39.6208 50.6247 39.6136C50.4288 39.5803 50.2542 39.4706 50.1392 39.3087C50.024 39.1467 49.9779 38.9458 50.0109 38.7498L52.5109 24.3749C52.5443 24.179 52.6539 24.0044 52.8159 23.8894C52.9778 23.7743 53.1788 23.7282 53.3747 23.7611C53.5705 23.7945 53.7452 23.9041 53.8602 24.0661C53.9753 24.228 54.0214 24.429 53.9884 24.6249L51.4884 38.9998C51.4589 39.1746 51.3685 39.3331 51.2333 39.4474C51.0982 39.5618 50.9268 39.6247 50.7497 39.6248Z" fill="white"/>
</g>
<path d="M89.6836 37.4668V39H82.1543V37.4668H89.6836ZM82.5352 24.7812V39H80.6504V24.7812H82.5352ZM88.6875 30.8945V32.4277H82.1543V30.8945H88.6875ZM89.5859 24.7812V26.3242H82.1543V24.7812H89.5859ZM93.541 30.5332V39H91.7246V28.4336H93.4434L93.541 30.5332ZM93.1699 33.3164L92.3301 33.2871C92.3366 32.5645 92.431 31.8971 92.6133 31.2852C92.7956 30.6667 93.0658 30.1296 93.4238 29.6738C93.7819 29.2181 94.2279 28.8665 94.7617 28.6191C95.2956 28.3652 95.9141 28.2383 96.6172 28.2383C97.112 28.2383 97.5677 28.3099 97.9844 28.4531C98.401 28.5898 98.7624 28.8079 99.0684 29.1074C99.3743 29.4069 99.612 29.791 99.7812 30.2598C99.9505 30.7285 100.035 31.2949 100.035 31.959V39H98.2285V32.0469C98.2285 31.4935 98.1341 31.0508 97.9453 30.7188C97.763 30.3867 97.5026 30.1458 97.1641 29.9961C96.8255 29.8398 96.4284 29.7617 95.9727 29.7617C95.4388 29.7617 94.9928 29.8561 94.6348 30.0449C94.2767 30.2337 93.9902 30.4941 93.7754 30.8262C93.5605 31.1582 93.4043 31.5391 93.3066 31.9688C93.2155 32.3919 93.1699 32.8411 93.1699 33.3164ZM100.016 32.3203L98.8047 32.6914C98.8112 32.112 98.9056 31.5553 99.0879 31.0215C99.2767 30.4876 99.5469 30.0124 99.8984 29.5957C100.257 29.179 100.696 28.8503 101.217 28.6094C101.738 28.362 102.333 28.2383 103.004 28.2383C103.57 28.2383 104.072 28.3132 104.508 28.4629C104.951 28.6126 105.322 28.8438 105.621 29.1562C105.927 29.4622 106.158 29.8561 106.314 30.3379C106.471 30.8197 106.549 31.3926 106.549 32.0566V39H104.732V32.0371C104.732 31.4447 104.638 30.9857 104.449 30.6602C104.267 30.3281 104.007 30.097 103.668 29.9668C103.336 29.8301 102.939 29.7617 102.477 29.7617C102.079 29.7617 101.728 29.8301 101.422 29.9668C101.116 30.1035 100.859 30.2923 100.65 30.5332C100.442 30.7676 100.283 31.0378 100.172 31.3438C100.068 31.6497 100.016 31.9753 100.016 32.3203ZM109.273 24H111.09V36.9492L110.934 39H109.273V24ZM118.229 33.6289V33.834C118.229 34.6022 118.137 35.3151 117.955 35.9727C117.773 36.6237 117.506 37.1901 117.154 37.6719C116.803 38.1536 116.373 38.528 115.865 38.7949C115.357 39.0618 114.775 39.1953 114.117 39.1953C113.447 39.1953 112.857 39.0814 112.35 38.8535C111.848 38.6191 111.425 38.2839 111.08 37.8477C110.735 37.4115 110.458 36.8841 110.25 36.2656C110.048 35.6471 109.908 34.9505 109.83 34.1758V33.2773C109.908 32.4961 110.048 31.7962 110.25 31.1777C110.458 30.5592 110.735 30.0319 111.08 29.5957C111.425 29.153 111.848 28.8177 112.35 28.5898C112.851 28.3555 113.434 28.2383 114.098 28.2383C114.762 28.2383 115.351 28.3685 115.865 28.6289C116.38 28.8828 116.809 29.2474 117.154 29.7227C117.506 30.1979 117.773 30.7676 117.955 31.4316C118.137 32.0892 118.229 32.8216 118.229 33.6289ZM116.412 33.834V33.6289C116.412 33.1016 116.363 32.6068 116.266 32.1445C116.168 31.6758 116.012 31.2656 115.797 30.9141C115.582 30.556 115.299 30.276 114.947 30.0742C114.596 29.8659 114.163 29.7617 113.648 29.7617C113.193 29.7617 112.796 29.8398 112.457 29.9961C112.125 30.1523 111.842 30.3639 111.607 30.6309C111.373 30.8913 111.181 31.1908 111.031 31.5293C110.888 31.8613 110.781 32.2064 110.709 32.5645V34.918C110.813 35.3737 110.982 35.8132 111.217 36.2363C111.458 36.653 111.777 36.9948 112.174 37.2617C112.577 37.5286 113.076 37.6621 113.668 37.6621C114.156 37.6621 114.573 37.5645 114.918 37.3691C115.27 37.1673 115.553 36.8906 115.768 36.5391C115.989 36.1875 116.152 35.7806 116.256 35.3184C116.36 34.8561 116.412 34.3613 116.412 33.834ZM124.898 39.1953C124.163 39.1953 123.495 39.0716 122.896 38.8242C122.304 38.5703 121.793 38.2155 121.363 37.7598C120.94 37.304 120.615 36.7637 120.387 36.1387C120.159 35.5137 120.045 34.8301 120.045 34.0879V33.6777C120.045 32.8184 120.172 32.0534 120.426 31.3828C120.68 30.7057 121.025 30.1328 121.461 29.6641C121.897 29.1953 122.392 28.8405 122.945 28.5996C123.499 28.3587 124.072 28.2383 124.664 28.2383C125.419 28.2383 126.07 28.3685 126.617 28.6289C127.171 28.8893 127.623 29.2539 127.975 29.7227C128.326 30.1849 128.587 30.7318 128.756 31.3633C128.925 31.9883 129.01 32.6719 129.01 33.4141V34.2246H121.119V32.75H127.203V32.6133C127.177 32.1445 127.079 31.6888 126.91 31.2461C126.747 30.8034 126.487 30.4388 126.129 30.1523C125.771 29.8659 125.283 29.7227 124.664 29.7227C124.254 29.7227 123.876 29.8105 123.531 29.9863C123.186 30.1556 122.89 30.4095 122.643 30.748C122.395 31.0866 122.203 31.5 122.066 31.9883C121.93 32.4766 121.861 33.0397 121.861 33.6777V34.0879C121.861 34.5892 121.93 35.0612 122.066 35.5039C122.21 35.9401 122.415 36.3242 122.682 36.6562C122.955 36.9883 123.284 37.2487 123.668 37.4375C124.059 37.6263 124.501 37.7207 124.996 37.7207C125.634 37.7207 126.174 37.5905 126.617 37.3301C127.06 37.0697 127.447 36.7214 127.779 36.2852L128.873 37.1543C128.645 37.4993 128.355 37.8281 128.004 38.1406C127.652 38.4531 127.219 38.707 126.705 38.9023C126.197 39.0977 125.595 39.1953 124.898 39.1953ZM137.779 36.9492V24H139.596V39H137.936L137.779 36.9492ZM130.67 33.834V33.6289C130.67 32.8216 130.768 32.0892 130.963 31.4316C131.165 30.7676 131.448 30.1979 131.812 29.7227C132.184 29.2474 132.623 28.8828 133.131 28.6289C133.645 28.3685 134.218 28.2383 134.85 28.2383C135.514 28.2383 136.093 28.3555 136.588 28.5898C137.089 28.8177 137.512 29.153 137.857 29.5957C138.209 30.0319 138.486 30.5592 138.688 31.1777C138.889 31.7962 139.029 32.4961 139.107 33.2773V34.1758C139.036 34.9505 138.896 35.6471 138.688 36.2656C138.486 36.8841 138.209 37.4115 137.857 37.8477C137.512 38.2839 137.089 38.6191 136.588 38.8535C136.087 39.0814 135.501 39.1953 134.83 39.1953C134.212 39.1953 133.645 39.0618 133.131 38.7949C132.623 38.528 132.184 38.1536 131.812 37.6719C131.448 37.1901 131.165 36.6237 130.963 35.9727C130.768 35.3151 130.67 34.6022 130.67 33.834ZM132.486 33.6289V33.834C132.486 34.3613 132.538 34.8561 132.643 35.3184C132.753 35.7806 132.923 36.1875 133.15 36.5391C133.378 36.8906 133.668 37.1673 134.02 37.3691C134.371 37.5645 134.791 37.6621 135.279 37.6621C135.878 37.6621 136.37 37.5352 136.754 37.2812C137.145 37.0273 137.457 36.6921 137.691 36.2754C137.926 35.8587 138.108 35.4062 138.238 34.918V32.5645C138.16 32.2064 138.046 31.8613 137.896 31.5293C137.753 31.1908 137.564 30.8913 137.33 30.6309C137.102 30.3639 136.819 30.1523 136.48 29.9961C136.148 29.8398 135.755 29.7617 135.299 29.7617C134.804 29.7617 134.378 29.8659 134.02 30.0742C133.668 30.276 133.378 30.556 133.15 30.9141C132.923 31.2656 132.753 31.6758 132.643 32.1445C132.538 32.6068 132.486 33.1016 132.486 33.6289Z" fill="white"/>
</g>
<defs>
<clipPath id="clip0_144_890">
<rect width="178" height="64" fill="white"/>
</clipPath>
<clipPath id="clip1_144_890">
<rect width="30" height="30" fill="white" transform="translate(37 17)"/>
</clipPath>
</defs>
</svg>
