<svg width="178" height="64" viewBox="0 0 178 64" fill="none" xmlns="http://www.w3.org/2000/svg">
<g clip-path="url(#clip0_142_842)">
<rect width="178" height="64" fill="white"/>
<path d="M172.671 0H5.32934C2.38603 0 0 2.38781 0 5.33333V58.6667C0 61.6122 2.38603 64 5.32934 64H172.671C175.614 64 178 61.6122 178 58.6667V5.33333C178 2.38781 175.614 0 172.671 0Z" fill="white"/>
<path d="M172.67 0.533447H5.32912C2.68014 0.533447 0.532715 2.68248 0.532715 5.33345V58.6668C0.532715 61.3177 2.68014 63.4668 5.32912 63.4668H172.67C175.319 63.4668 177.467 61.3177 177.467 58.6668V5.33345C177.467 2.68248 175.319 0.533447 172.67 0.533447Z" stroke="#3C5A9A"/>
<path d="M93.2461 24.7812H95.0723L99.7305 36.373L104.379 24.7812H106.215L100.434 39H99.0078L93.2461 24.7812ZM92.6504 24.7812H94.2617L94.5254 33.4531V39H92.6504V24.7812ZM105.189 24.7812H106.801V39H104.926V33.4531L105.189 24.7812ZM116.068 37.1934V31.7539C116.068 31.3372 115.984 30.9759 115.814 30.6699C115.652 30.3574 115.404 30.1165 115.072 29.9473C114.74 29.778 114.33 29.6934 113.842 29.6934C113.386 29.6934 112.986 29.7715 112.641 29.9277C112.302 30.084 112.035 30.2891 111.84 30.543C111.651 30.7969 111.557 31.0703 111.557 31.3633H109.75C109.75 30.9857 109.848 30.6113 110.043 30.2402C110.238 29.8691 110.518 29.5339 110.883 29.2344C111.254 28.9284 111.697 28.6875 112.211 28.5117C112.732 28.3294 113.311 28.2383 113.949 28.2383C114.717 28.2383 115.395 28.3685 115.98 28.6289C116.573 28.8893 117.035 29.2832 117.367 29.8105C117.706 30.3314 117.875 30.9857 117.875 31.7734V36.6953C117.875 37.0469 117.904 37.4212 117.963 37.8184C118.028 38.2155 118.122 38.5573 118.246 38.8438V39H116.361C116.27 38.7917 116.199 38.515 116.146 38.1699C116.094 37.8184 116.068 37.4928 116.068 37.1934ZM116.381 32.5938L116.4 33.8633H114.574C114.06 33.8633 113.601 33.9056 113.197 33.9902C112.794 34.0684 112.455 34.1888 112.182 34.3516C111.908 34.5143 111.7 34.7194 111.557 34.9668C111.413 35.2077 111.342 35.4909 111.342 35.8164C111.342 36.1484 111.417 36.4512 111.566 36.7246C111.716 36.998 111.941 37.2161 112.24 37.3789C112.546 37.5352 112.921 37.6133 113.363 37.6133C113.917 37.6133 114.405 37.4961 114.828 37.2617C115.251 37.0273 115.587 36.7409 115.834 36.4023C116.088 36.0638 116.225 35.735 116.244 35.416L117.016 36.2852C116.97 36.5586 116.846 36.8613 116.645 37.1934C116.443 37.5254 116.173 37.8444 115.834 38.1504C115.502 38.4499 115.105 38.7005 114.643 38.9023C114.187 39.0977 113.673 39.1953 113.1 39.1953C112.383 39.1953 111.755 39.0553 111.215 38.7754C110.681 38.4954 110.264 38.1211 109.965 37.6523C109.672 37.1771 109.525 36.6465 109.525 36.0605C109.525 35.4941 109.636 34.9961 109.857 34.5664C110.079 34.1302 110.398 33.7689 110.814 33.4824C111.231 33.1895 111.732 32.9681 112.318 32.8184C112.904 32.6686 113.559 32.5938 114.281 32.5938H116.381ZM122.68 28.4336V39H120.863V28.4336H122.68ZM120.727 25.6309C120.727 25.3379 120.814 25.0905 120.99 24.8887C121.173 24.6868 121.439 24.5859 121.791 24.5859C122.136 24.5859 122.4 24.6868 122.582 24.8887C122.771 25.0905 122.865 25.3379 122.865 25.6309C122.865 25.9108 122.771 26.1517 122.582 26.3535C122.4 26.5488 122.136 26.6465 121.791 26.6465C121.439 26.6465 121.173 26.5488 120.99 26.3535C120.814 26.1517 120.727 25.9108 120.727 25.6309ZM127.543 24V39H125.727V24H127.543Z" fill="#0A53A8"/>
<path d="M72.326 37.8018C72.2041 37.8022 72.0869 37.7553 71.9989 37.671L66.5045 32.4549C66.4124 32.3666 66.3586 32.2457 66.3547 32.1182C66.3508 31.9907 66.3971 31.8667 66.4836 31.773C66.5261 31.7266 66.5775 31.6892 66.6347 31.663C66.6919 31.6368 66.7538 31.6223 66.8167 31.6203C66.8796 31.6184 66.9422 31.6291 67.001 31.6517C67.0597 31.6743 67.1133 31.7085 67.1586 31.7521L72.653 36.9682C72.7451 37.0565 72.7989 37.1774 72.8028 37.3049C72.8067 37.4324 72.7604 37.5564 72.6739 37.6501C72.6295 37.698 72.5756 37.7362 72.5158 37.7623C72.4559 37.7884 72.3913 37.8019 72.326 37.8018Z" fill="#0A53A8"/>
<path d="M72.3255 38.1497C72.1138 38.1502 71.9102 38.0683 71.7577 37.9214L66.266 32.7067C66.1073 32.5553 66.0145 32.3475 66.0077 32.1282C66.001 31.909 66.0807 31.6958 66.2299 31.5349C66.3036 31.4548 66.3926 31.3902 66.4916 31.3449C66.5906 31.2996 66.6977 31.2744 66.8065 31.2709C66.9153 31.2674 67.0238 31.2857 67.1255 31.3245C67.2272 31.3634 67.3201 31.4222 67.3989 31.4973L72.8947 36.7134C73.0535 36.8648 73.1463 37.0726 73.153 37.2919C73.1598 37.5112 73.08 37.7243 72.9309 37.8852C72.854 37.969 72.7604 38.0358 72.6561 38.0814C72.5519 38.1269 72.4393 38.1502 72.3255 38.1497ZM66.8297 31.9677C66.8126 31.9677 66.7957 31.9713 66.7801 31.9782C66.7645 31.9852 66.7506 31.9954 66.7392 32.0081C66.7141 32.034 66.7001 32.0687 66.7001 32.1048C66.7001 32.1409 66.7141 32.1756 66.7392 32.2015L72.2392 37.4232C72.2507 37.4347 72.2644 37.4438 72.2795 37.45C72.2945 37.4562 72.3106 37.4594 72.3269 37.4594C72.3447 37.4595 72.3624 37.4558 72.3787 37.4486C72.395 37.4414 72.4096 37.4309 72.4215 37.4176C72.4462 37.3918 72.46 37.3574 72.46 37.3216C72.46 37.2859 72.4462 37.2515 72.4215 37.2256L66.9187 32.0039C66.895 31.9806 66.863 31.9676 66.8297 31.9677Z" fill="#0A53A8"/>
<path d="M53.9829 37.802C53.9175 37.8018 53.8529 37.7881 53.793 37.7617C53.7331 37.7354 53.6793 37.697 53.635 37.649C53.5485 37.5552 53.5022 37.4312 53.5061 37.3037C53.51 37.1762 53.5638 37.0553 53.6559 36.967L59.1531 31.7509C59.1986 31.7076 59.2522 31.6738 59.3109 31.6514C59.3696 31.6289 59.4321 31.6184 59.4949 31.6203C59.5577 31.6223 59.6195 31.6367 59.6767 31.6627C59.7339 31.6887 59.7853 31.7258 59.828 31.7718C59.9146 31.8656 59.9608 31.9895 59.9569 32.117C59.953 32.2446 59.8993 32.3654 59.8072 32.4537L54.31 37.6698C54.2222 37.7547 54.1049 37.8021 53.9829 37.802Z" fill="#0A53A8"/>
<path d="M53.9832 38.15C53.8178 38.1474 53.657 38.0958 53.521 38.0017C53.385 37.9076 53.28 37.7753 53.2194 37.6214C53.1587 37.4676 53.1451 37.2992 53.1802 37.1376C53.2154 36.976 53.2977 36.8285 53.4168 36.7138L58.914 31.4991C58.993 31.424 59.086 31.3654 59.1879 31.3266C59.2897 31.2878 59.3982 31.2696 59.5071 31.2731C59.6159 31.2766 59.7231 31.3017 59.8222 31.347C59.9213 31.3922 60.0104 31.4567 60.0844 31.5366C60.2329 31.6977 60.3122 31.9106 60.3052 32.1295C60.2981 32.3485 60.2054 32.5559 60.0468 32.7071L54.5496 37.9232C54.3973 38.0692 54.1942 38.1505 53.9832 38.15ZM59.4804 31.9681C59.4467 31.968 59.4143 31.981 59.39 32.0043L53.8955 37.2203C53.8704 37.2463 53.8564 37.281 53.8564 37.3171C53.8564 37.3532 53.8704 37.3878 53.8955 37.4138C53.9073 37.4268 53.9217 37.4373 53.9377 37.4445C53.9538 37.4517 53.9712 37.4554 53.9888 37.4555C54.021 37.4557 54.052 37.4432 54.075 37.4207L59.5667 32.2033C59.5918 32.1773 59.6058 32.1426 59.6058 32.1065C59.6058 32.0704 59.5918 32.0358 59.5667 32.0098C59.5559 31.9974 59.5427 31.9872 59.5279 31.98C59.513 31.9729 59.4969 31.9688 59.4804 31.9681Z" fill="#0A53A8"/>
<path fill-rule="evenodd" clip-rule="evenodd" d="M50.7349 42.652H75.5768C76.2134 42.6473 76.8221 42.3903 77.2695 41.9374C77.7169 41.4845 77.9665 40.8727 77.9636 40.2361V23.7639C77.9665 23.1273 77.7169 22.5155 77.2695 22.0626C76.8221 21.6097 76.2134 21.3527 75.5768 21.3479H50.7349C50.0983 21.3527 49.4896 21.6097 49.0422 22.0626C48.5948 22.5155 48.3452 23.1273 48.3482 23.7639V40.2361C48.3452 40.8727 48.5948 41.4845 49.0422 41.9374C49.4896 42.3903 50.0983 42.6473 50.7349 42.652ZM49.3029 23.7639C49.3014 23.3821 49.4513 23.0153 49.7197 22.7437C49.9881 22.4722 50.3531 22.3181 50.7349 22.3151H75.5768C75.9588 22.3181 76.3241 22.4724 76.5926 22.7442C76.861 23.0161 77.0107 23.3832 77.0088 23.7653V40.2361C77.0107 40.6181 76.861 40.9853 76.5926 41.2571C76.3241 41.529 75.9588 41.6833 75.5768 41.6862H50.7349C50.3529 41.6833 49.9876 41.529 49.7192 41.2571C49.4507 40.9853 49.301 40.6181 49.3029 40.2361V23.7639Z" fill="#0A53A8"/>
<path d="M75.5766 43H50.7347C50.0058 42.9952 49.3086 42.7016 48.796 42.1834C48.2833 41.6653 47.9971 40.965 48 40.2361V23.7639C47.9971 23.035 48.2833 22.3347 48.796 21.8166C49.3086 21.2984 50.0058 21.0048 50.7347 21H75.5766C76.3054 21.0048 77.0027 21.2984 77.5153 21.8166C78.028 22.3347 78.3142 23.035 78.3113 23.7639V40.2361C78.3142 40.965 78.028 41.6653 77.5153 42.1834C77.0027 42.7016 76.3054 42.9952 75.5766 43ZM50.7347 21.6959C50.1903 21.7003 49.6698 21.9205 49.2876 22.3082C48.9053 22.6959 48.6925 23.2195 48.6959 23.7639V40.2361C48.6925 40.7808 48.9055 41.3045 49.2881 41.6923C49.6706 42.08 50.1914 42.3001 50.7361 42.3041H75.5766C76.121 42.2997 76.6415 42.0795 77.0237 41.6918C77.4059 41.3041 77.6187 40.7805 77.6154 40.2361V23.7639C77.6187 23.2195 77.4059 22.6959 77.0237 22.3082C76.6415 21.9205 76.121 21.7003 75.5766 21.6959H50.7347ZM75.5766 42.0356H50.7347C50.2602 42.0326 49.8062 41.8415 49.4724 41.5041C49.1387 41.1667 48.9525 40.7106 48.9547 40.2361V23.7639C48.9532 23.2898 49.1398 22.8345 49.4734 22.4977C49.8071 22.1609 50.2606 21.9702 50.7347 21.9672H75.5766C76.0509 21.9702 76.5047 22.1611 76.8383 22.4982C77.172 22.8353 77.3584 23.291 77.3566 23.7653V40.2361C77.3588 40.7106 77.1726 41.1667 76.8388 41.5041C76.5051 41.8415 76.0511 42.0326 75.5766 42.0356ZM50.7347 22.6631C50.4448 22.6657 50.1678 22.7832 49.9646 22.9899C49.7613 23.1965 49.6484 23.4754 49.6506 23.7653V40.2361C49.6484 40.526 49.7613 40.8049 49.9646 41.0115C50.1678 41.2182 50.4448 41.3357 50.7347 41.3383H75.5766C75.8664 41.3357 76.1434 41.2182 76.3467 41.0115C76.55 40.8049 76.6629 40.526 76.6607 40.2361V23.7639C76.6629 23.474 76.55 23.1951 76.3467 22.9885C76.1434 22.7818 75.8664 22.6643 75.5766 22.6617L50.7347 22.6631Z" fill="#0A53A8"/>
<path d="M63.1554 34.4282C62.5126 34.4345 61.8894 34.207 61.4018 33.7881L49.1396 22.9676C49.0441 22.8827 48.9856 22.7638 48.9768 22.6363C48.9679 22.5088 49.0094 22.3829 49.0923 22.2857C49.1331 22.2377 49.183 22.1984 49.2391 22.1699C49.2953 22.1414 49.3565 22.1244 49.4193 22.1197C49.4821 22.1151 49.5451 22.1229 49.6049 22.1428C49.6646 22.1627 49.7198 22.1942 49.7672 22.2356L62.0295 33.0588C62.3464 33.3197 62.7442 33.4624 63.1547 33.4624C63.5652 33.4624 63.963 33.3197 64.2799 33.0588L76.5268 22.2536C76.5739 22.2121 76.6288 22.1803 76.6882 22.1601C76.7477 22.1399 76.8106 22.1316 76.8732 22.1359C76.9359 22.1402 76.9971 22.1569 77.0532 22.1849C77.1094 22.213 77.1594 22.252 77.2004 22.2996C77.2835 22.3967 77.3252 22.5224 77.3166 22.6499C77.308 22.7774 77.2498 22.8964 77.1545 22.9815L64.9075 33.7881C64.4206 34.2072 63.7978 34.4348 63.1554 34.4282Z" fill="#0A53A8"/>
<path d="M63.1553 34.7764C62.4279 34.7838 61.7227 34.5255 61.1721 34.05L48.9029 23.2253C48.7397 23.0791 48.6405 22.8746 48.6267 22.6559C48.6129 22.4372 48.6856 22.2219 48.8291 22.0563C48.9001 21.974 48.9867 21.9066 49.0838 21.8579C49.181 21.8092 49.2868 21.7802 49.3952 21.7725C49.5036 21.7649 49.6124 21.7788 49.7154 21.8134C49.8184 21.848 49.9136 21.9027 49.9954 21.9742L62.2632 32.7988C62.5165 33.0036 62.8324 33.1152 63.1581 33.1152C63.4838 33.1152 63.7996 33.0036 64.053 32.7988L76.2971 21.9937C76.3787 21.9218 76.4737 21.8668 76.5766 21.8319C76.6795 21.7969 76.7884 21.7827 76.8968 21.7901C77.0052 21.7975 77.1112 21.8263 77.2084 21.8748C77.3057 21.9234 77.3923 21.9908 77.4634 22.073C77.6069 22.2392 77.6791 22.4552 77.6645 22.6742C77.6499 22.8933 77.5497 23.0978 77.3854 23.2434L65.1385 34.0486C64.5882 34.5247 63.883 34.7835 63.1553 34.7764ZM49.4596 22.4669C49.4411 22.4668 49.4228 22.4708 49.406 22.4784C49.3892 22.4861 49.3742 22.4974 49.3622 22.5114C49.3389 22.5391 49.3273 22.5748 49.3299 22.6109C49.3325 22.6471 49.349 22.6807 49.3761 22.7048L61.6328 33.5281C62.06 33.8854 62.5991 34.0811 63.156 34.0811C63.7129 34.0811 64.252 33.8854 64.6792 33.5281L76.9262 22.7229C76.9532 22.6984 76.9695 22.6642 76.9716 22.6278C76.9737 22.5913 76.9614 22.5555 76.9373 22.5281C76.9255 22.5142 76.9108 22.503 76.8942 22.4953C76.8776 22.4876 76.8596 22.4836 76.8413 22.4836C76.8104 22.4835 76.7807 22.4949 76.7578 22.5156L64.5108 33.3207C64.1302 33.6377 63.6506 33.8113 63.1553 33.8113C62.66 33.8113 62.1804 33.6377 61.7998 33.3207L49.5375 22.4975C49.5157 22.4788 49.4883 22.468 49.4596 22.4669Z" fill="#0A53A8"/>
<path d="M93.2461 24.7812H95.0723L99.7305 36.373L104.379 24.7812H106.215L100.434 39H99.0078L93.2461 24.7812ZM92.6504 24.7812H94.2617L94.5254 33.4531V39H92.6504V24.7812ZM105.189 24.7812H106.801V39H104.926V33.4531L105.189 24.7812ZM116.068 37.1934V31.7539C116.068 31.3372 115.984 30.9759 115.814 30.6699C115.652 30.3574 115.404 30.1165 115.072 29.9473C114.74 29.778 114.33 29.6934 113.842 29.6934C113.386 29.6934 112.986 29.7715 112.641 29.9277C112.302 30.084 112.035 30.2891 111.84 30.543C111.651 30.7969 111.557 31.0703 111.557 31.3633H109.75C109.75 30.9857 109.848 30.6113 110.043 30.2402C110.238 29.8691 110.518 29.5339 110.883 29.2344C111.254 28.9284 111.697 28.6875 112.211 28.5117C112.732 28.3294 113.311 28.2383 113.949 28.2383C114.717 28.2383 115.395 28.3685 115.98 28.6289C116.573 28.8893 117.035 29.2832 117.367 29.8105C117.706 30.3314 117.875 30.9857 117.875 31.7734V36.6953C117.875 37.0469 117.904 37.4212 117.963 37.8184C118.028 38.2155 118.122 38.5573 118.246 38.8438V39H116.361C116.27 38.7917 116.199 38.515 116.146 38.1699C116.094 37.8184 116.068 37.4928 116.068 37.1934ZM116.381 32.5938L116.4 33.8633H114.574C114.06 33.8633 113.601 33.9056 113.197 33.9902C112.794 34.0684 112.455 34.1888 112.182 34.3516C111.908 34.5143 111.7 34.7194 111.557 34.9668C111.413 35.2077 111.342 35.4909 111.342 35.8164C111.342 36.1484 111.417 36.4512 111.566 36.7246C111.716 36.998 111.941 37.2161 112.24 37.3789C112.546 37.5352 112.921 37.6133 113.363 37.6133C113.917 37.6133 114.405 37.4961 114.828 37.2617C115.251 37.0273 115.587 36.7409 115.834 36.4023C116.088 36.0638 116.225 35.735 116.244 35.416L117.016 36.2852C116.97 36.5586 116.846 36.8613 116.645 37.1934C116.443 37.5254 116.173 37.8444 115.834 38.1504C115.502 38.4499 115.105 38.7005 114.643 38.9023C114.187 39.0977 113.673 39.1953 113.1 39.1953C112.383 39.1953 111.755 39.0553 111.215 38.7754C110.681 38.4954 110.264 38.1211 109.965 37.6523C109.672 37.1771 109.525 36.6465 109.525 36.0605C109.525 35.4941 109.636 34.9961 109.857 34.5664C110.079 34.1302 110.398 33.7689 110.814 33.4824C111.231 33.1895 111.732 32.9681 112.318 32.8184C112.904 32.6686 113.559 32.5938 114.281 32.5938H116.381ZM122.68 28.4336V39H120.863V28.4336H122.68ZM120.727 25.6309C120.727 25.3379 120.814 25.0905 120.99 24.8887C121.173 24.6868 121.439 24.5859 121.791 24.5859C122.136 24.5859 122.4 24.6868 122.582 24.8887C122.771 25.0905 122.865 25.3379 122.865 25.6309C122.865 25.9108 122.771 26.1517 122.582 26.3535C122.4 26.5488 122.136 26.6465 121.791 26.6465C121.439 26.6465 121.173 26.5488 120.99 26.3535C120.814 26.1517 120.727 25.9108 120.727 25.6309ZM127.543 24V39H125.727V24H127.543Z" fill="#0A53A8"/>
<path d="M72.326 37.8018C72.2041 37.8022 72.0869 37.7553 71.9989 37.671L66.5045 32.4549C66.4124 32.3666 66.3586 32.2457 66.3547 32.1182C66.3508 31.9907 66.3971 31.8667 66.4836 31.773C66.5261 31.7266 66.5775 31.6892 66.6347 31.663C66.6919 31.6368 66.7538 31.6223 66.8167 31.6203C66.8796 31.6184 66.9422 31.6291 67.001 31.6517C67.0597 31.6743 67.1133 31.7085 67.1586 31.7521L72.653 36.9682C72.7451 37.0565 72.7989 37.1774 72.8028 37.3049C72.8067 37.4324 72.7604 37.5564 72.6739 37.6501C72.6295 37.698 72.5756 37.7362 72.5158 37.7623C72.4559 37.7884 72.3913 37.8019 72.326 37.8018Z" fill="#0A53A8"/>
<path d="M72.3255 38.1497C72.1138 38.1502 71.9102 38.0683 71.7577 37.9214L66.266 32.7067C66.1073 32.5553 66.0145 32.3475 66.0077 32.1282C66.001 31.909 66.0807 31.6958 66.2299 31.5349C66.3036 31.4548 66.3926 31.3902 66.4916 31.3449C66.5906 31.2996 66.6977 31.2744 66.8065 31.2709C66.9153 31.2674 67.0238 31.2857 67.1255 31.3245C67.2272 31.3634 67.3201 31.4222 67.3989 31.4973L72.8947 36.7134C73.0535 36.8648 73.1463 37.0726 73.153 37.2919C73.1598 37.5112 73.08 37.7243 72.9309 37.8852C72.854 37.969 72.7604 38.0358 72.6561 38.0814C72.5519 38.1269 72.4393 38.1502 72.3255 38.1497ZM66.8297 31.9677C66.8126 31.9677 66.7957 31.9713 66.7801 31.9782C66.7645 31.9852 66.7506 31.9954 66.7392 32.0081C66.7141 32.034 66.7001 32.0687 66.7001 32.1048C66.7001 32.1409 66.7141 32.1756 66.7392 32.2015L72.2392 37.4232C72.2507 37.4347 72.2644 37.4438 72.2795 37.45C72.2945 37.4562 72.3106 37.4594 72.3269 37.4594C72.3447 37.4595 72.3624 37.4558 72.3787 37.4486C72.395 37.4414 72.4096 37.4309 72.4215 37.4176C72.4462 37.3918 72.46 37.3574 72.46 37.3216C72.46 37.2859 72.4462 37.2515 72.4215 37.2256L66.9187 32.0039C66.895 31.9806 66.863 31.9676 66.8297 31.9677Z" fill="#0A53A8"/>
<path d="M53.9829 37.802C53.9175 37.8018 53.8529 37.7881 53.793 37.7617C53.7331 37.7354 53.6793 37.697 53.635 37.649C53.5485 37.5552 53.5022 37.4312 53.5061 37.3037C53.51 37.1762 53.5638 37.0553 53.6559 36.967L59.1531 31.7509C59.1986 31.7076 59.2522 31.6738 59.3109 31.6514C59.3696 31.6289 59.4321 31.6184 59.4949 31.6203C59.5577 31.6223 59.6195 31.6367 59.6767 31.6627C59.7339 31.6887 59.7853 31.7258 59.828 31.7718C59.9146 31.8656 59.9608 31.9895 59.9569 32.117C59.953 32.2446 59.8993 32.3654 59.8072 32.4537L54.31 37.6698C54.2222 37.7547 54.1049 37.8021 53.9829 37.802Z" fill="#0A53A8"/>
<path d="M53.9832 38.15C53.8178 38.1474 53.657 38.0958 53.521 38.0017C53.385 37.9076 53.28 37.7753 53.2194 37.6214C53.1587 37.4676 53.1451 37.2992 53.1802 37.1376C53.2154 36.976 53.2977 36.8285 53.4168 36.7138L58.914 31.4991C58.993 31.424 59.086 31.3654 59.1879 31.3266C59.2897 31.2878 59.3982 31.2696 59.5071 31.2731C59.6159 31.2766 59.7231 31.3017 59.8222 31.347C59.9213 31.3922 60.0104 31.4567 60.0844 31.5366C60.2329 31.6977 60.3122 31.9106 60.3052 32.1295C60.2981 32.3485 60.2054 32.5559 60.0468 32.7071L54.5496 37.9232C54.3973 38.0692 54.1942 38.1505 53.9832 38.15ZM59.4804 31.9681C59.4467 31.968 59.4143 31.981 59.39 32.0043L53.8955 37.2203C53.8704 37.2463 53.8564 37.281 53.8564 37.3171C53.8564 37.3532 53.8704 37.3878 53.8955 37.4138C53.9073 37.4268 53.9217 37.4373 53.9377 37.4445C53.9538 37.4517 53.9712 37.4554 53.9888 37.4555C54.021 37.4557 54.052 37.4432 54.075 37.4207L59.5667 32.2033C59.5918 32.1773 59.6058 32.1426 59.6058 32.1065C59.6058 32.0704 59.5918 32.0358 59.5667 32.0098C59.5559 31.9974 59.5427 31.9872 59.5279 31.98C59.513 31.9729 59.4969 31.9688 59.4804 31.9681Z" fill="#0A53A8"/>
<path fill-rule="evenodd" clip-rule="evenodd" d="M50.7349 42.652H75.5768C76.2134 42.6473 76.8221 42.3903 77.2695 41.9374C77.7169 41.4845 77.9665 40.8727 77.9636 40.2361V23.7639C77.9665 23.1273 77.7169 22.5155 77.2695 22.0626C76.8221 21.6097 76.2134 21.3527 75.5768 21.3479H50.7349C50.0983 21.3527 49.4896 21.6097 49.0422 22.0626C48.5948 22.5155 48.3452 23.1273 48.3482 23.7639V40.2361C48.3452 40.8727 48.5948 41.4845 49.0422 41.9374C49.4896 42.3903 50.0983 42.6473 50.7349 42.652ZM49.3029 23.7639C49.3014 23.3821 49.4513 23.0153 49.7197 22.7437C49.9881 22.4722 50.3531 22.3181 50.7349 22.3151H75.5768C75.9588 22.3181 76.3241 22.4724 76.5926 22.7442C76.861 23.0161 77.0107 23.3832 77.0088 23.7653V40.2361C77.0107 40.6181 76.861 40.9853 76.5926 41.2571C76.3241 41.529 75.9588 41.6833 75.5768 41.6862H50.7349C50.3529 41.6833 49.9876 41.529 49.7192 41.2571C49.4507 40.9853 49.301 40.6181 49.3029 40.2361V23.7639Z" fill="#0A53A8"/>
<path d="M75.5766 43H50.7347C50.0058 42.9952 49.3086 42.7016 48.796 42.1834C48.2833 41.6653 47.9971 40.965 48 40.2361V23.7639C47.9971 23.035 48.2833 22.3347 48.796 21.8166C49.3086 21.2984 50.0058 21.0048 50.7347 21H75.5766C76.3054 21.0048 77.0027 21.2984 77.5153 21.8166C78.028 22.3347 78.3142 23.035 78.3113 23.7639V40.2361C78.3142 40.965 78.028 41.6653 77.5153 42.1834C77.0027 42.7016 76.3054 42.9952 75.5766 43ZM50.7347 21.6959C50.1903 21.7003 49.6698 21.9205 49.2876 22.3082C48.9053 22.6959 48.6925 23.2195 48.6959 23.7639V40.2361C48.6925 40.7808 48.9055 41.3045 49.2881 41.6923C49.6706 42.08 50.1914 42.3001 50.7361 42.3041H75.5766C76.121 42.2997 76.6415 42.0795 77.0237 41.6918C77.4059 41.3041 77.6187 40.7805 77.6154 40.2361V23.7639C77.6187 23.2195 77.4059 22.6959 77.0237 22.3082C76.6415 21.9205 76.121 21.7003 75.5766 21.6959H50.7347ZM75.5766 42.0356H50.7347C50.2602 42.0326 49.8062 41.8415 49.4724 41.5041C49.1387 41.1667 48.9525 40.7106 48.9547 40.2361V23.7639C48.9532 23.2898 49.1398 22.8345 49.4734 22.4977C49.8071 22.1609 50.2606 21.9702 50.7347 21.9672H75.5766C76.0509 21.9702 76.5047 22.1611 76.8383 22.4982C77.172 22.8353 77.3584 23.291 77.3566 23.7653V40.2361C77.3588 40.7106 77.1726 41.1667 76.8388 41.5041C76.5051 41.8415 76.0511 42.0326 75.5766 42.0356ZM50.7347 22.6631C50.4448 22.6657 50.1678 22.7832 49.9646 22.9899C49.7613 23.1965 49.6484 23.4754 49.6506 23.7653V40.2361C49.6484 40.526 49.7613 40.8049 49.9646 41.0115C50.1678 41.2182 50.4448 41.3357 50.7347 41.3383H75.5766C75.8664 41.3357 76.1434 41.2182 76.3467 41.0115C76.55 40.8049 76.6629 40.526 76.6607 40.2361V23.7639C76.6629 23.474 76.55 23.1951 76.3467 22.9885C76.1434 22.7818 75.8664 22.6643 75.5766 22.6617L50.7347 22.6631Z" fill="#0A53A8"/>
<path d="M63.1554 34.4282C62.5126 34.4345 61.8894 34.207 61.4018 33.7881L49.1396 22.9676C49.0441 22.8827 48.9856 22.7638 48.9768 22.6363C48.9679 22.5088 49.0094 22.3829 49.0923 22.2857C49.1331 22.2377 49.183 22.1984 49.2391 22.1699C49.2953 22.1414 49.3565 22.1244 49.4193 22.1197C49.4821 22.1151 49.5451 22.1229 49.6049 22.1428C49.6646 22.1627 49.7198 22.1942 49.7672 22.2356L62.0295 33.0588C62.3464 33.3197 62.7442 33.4624 63.1547 33.4624C63.5652 33.4624 63.963 33.3197 64.2799 33.0588L76.5268 22.2536C76.5739 22.2121 76.6288 22.1803 76.6882 22.1601C76.7477 22.1399 76.8106 22.1316 76.8732 22.1359C76.9359 22.1402 76.9971 22.1569 77.0532 22.1849C77.1094 22.213 77.1594 22.252 77.2004 22.2996C77.2835 22.3967 77.3252 22.5224 77.3166 22.6499C77.308 22.7774 77.2498 22.8964 77.1545 22.9815L64.9075 33.7881C64.4206 34.2072 63.7978 34.4348 63.1554 34.4282Z" fill="#0A53A8"/>
<path d="M63.1553 34.7764C62.4279 34.7838 61.7227 34.5255 61.1721 34.05L48.9029 23.2253C48.7397 23.0791 48.6405 22.8746 48.6267 22.6559C48.6129 22.4372 48.6856 22.2219 48.8291 22.0563C48.9001 21.974 48.9867 21.9066 49.0838 21.8579C49.181 21.8092 49.2868 21.7802 49.3952 21.7725C49.5036 21.7649 49.6124 21.7788 49.7154 21.8134C49.8184 21.848 49.9136 21.9027 49.9954 21.9742L62.2632 32.7988C62.5165 33.0036 62.8324 33.1152 63.1581 33.1152C63.4838 33.1152 63.7996 33.0036 64.053 32.7988L76.2971 21.9937C76.3787 21.9218 76.4737 21.8668 76.5766 21.8319C76.6795 21.7969 76.7884 21.7827 76.8968 21.7901C77.0052 21.7975 77.1112 21.8263 77.2084 21.8748C77.3057 21.9234 77.3923 21.9908 77.4634 22.073C77.6069 22.2392 77.6791 22.4552 77.6645 22.6742C77.6499 22.8933 77.5497 23.0978 77.3854 23.2434L65.1385 34.0486C64.5882 34.5247 63.883 34.7835 63.1553 34.7764ZM49.4596 22.4669C49.4411 22.4668 49.4228 22.4708 49.406 22.4784C49.3892 22.4861 49.3742 22.4974 49.3622 22.5114C49.3389 22.5391 49.3273 22.5748 49.3299 22.6109C49.3325 22.6471 49.349 22.6807 49.3761 22.7048L61.6328 33.5281C62.06 33.8854 62.5991 34.0811 63.156 34.0811C63.7129 34.0811 64.252 33.8854 64.6792 33.5281L76.9262 22.7229C76.9532 22.6984 76.9695 22.6642 76.9716 22.6278C76.9737 22.5913 76.9614 22.5555 76.9373 22.5281C76.9255 22.5142 76.9108 22.503 76.8942 22.4953C76.8776 22.4876 76.8596 22.4836 76.8413 22.4836C76.8104 22.4835 76.7807 22.4949 76.7578 22.5156L64.5108 33.3207C64.1302 33.6377 63.6506 33.8113 63.1553 33.8113C62.66 33.8113 62.1804 33.6377 61.7998 33.3207L49.5375 22.4975C49.5157 22.4788 49.4883 22.468 49.4596 22.4669Z" fill="#0A53A8"/>
</g>
<defs>
<clipPath id="clip0_142_842">
<rect width="178" height="64" fill="white"/>
</clipPath>
</defs>
</svg>
